<mxfile host="app.diagrams.net" modified="2023-09-26T20:57:31.756Z" agent="Mozilla/5.0 (Windows NT 10.0; Win64; x64) AppleWebKit/537.36 (KHTML, like Gecko) Chrome/116.0.0.0 Safari/537.36" version="21.8.2" etag="yH5zz0nLJdPxMFtohzG1" type="github">
  <diagram name="Page-1" id="gu-7i2pZEMLWBwhFWGym">
    <mxGraphModel>
      <root>
        <mxCell id="0" />
        <mxCell id="1" parent="0" />
      </root>
    </mxGraphModel>
  </diagram>
</mxfile>
